{
  "accessors": [
    {
      "bufferView": 2,
      "componentType": 5126,
      "count": 65532,
      "max": [
        4.366494178771973,
        6.793062210083008,
        10.770689010620117
      ],
      "min": [
        -18.483993530273438,
        -0.06302399933338165,
        -9.628646850585938
      ],
      "type": "VEC3"
    },
    {
      "bufferView": 2,
      "byteOffset": 786384,
      "componentType": 5126,
      "count": 65532,
      "max": [
        1.0,
        1.0,
        1.0
      ],
      "min": [
        -1.0,
        -1.0,
        -1.0
      ],
      "type": "VEC3"
    },
    {
      "bufferView": 3,
      "componentType": 5126,
      "count": 65532,
      "max": [
        1.0,
        1.0,
        1.0,
        1.0
      ],
      "min": [
        -0.9972244501113892,
        -1.0,
        -1.0,
        -1.0
      ],
      "type": "VEC4"
    },
    {
      "bufferView": 1,
      "componentType": 5126,
      "count": 65532,
      "max": [
        0.9951170086860657,
        0.9359599947929382
      ],
      "min": [
        0.004883000161498785,
        0.004916999954730272
      ],
      "type": "VEC2"
    },
    {
      "bufferView": 0,
      "componentType": 5125,
      "count": 350835,
      "type": "SCALAR"
    },
    {
      "bufferView": 2,
      "byteOffset": 1572768,
      "componentType": 5126,
      "count": 15751,
      "max": [
        4.366466045379639,
        6.400463104248047,
        10.666298866271973
      ],
      "min": [
        -18.483993530273438,
        -0.06302399933338165,
        -9.628644943237305
      ],
      "type": "VEC3"
    },
    {
      "bufferView": 2,
      "byteOffset": 1761780,
      "componentType": 5126,
      "count": 15751,
      "max": [
        1.0,
        1.0,
        0.9999998807907104
      ],
      "min": [
        -0.9999974966049194,
        -1.0,
        -1.0
      ],
      "type": "VEC3"
    },
    {
      "bufferView": 3,
      "byteOffset": 1048512,
      "componentType": 5126,
      "count": 15751,
      "max": [
        1.0,
        1.0,
        1.0,
        1.0
      ],
      "min": [
        -0.9997156262397766,
        -1.0,
        -1.0,
        -1.0
      ],
      "type": "VEC4"
    },
    {
      "bufferView": 1,
      "byteOffset": 524256,
      "componentType": 5126,
      "count": 15751,
      "max": [
        0.9951170086860657,
        0.9071829915046692
      ],
      "min": [
        0.005785000044852495,
        0.004883000161498785
      ],
      "type": "VEC2"
    },
    {
      "bufferView": 0,
      "byteOffset": 1403340,
      "componentType": 5125,
      "count": 68181,
      "type": "SCALAR"
    },
    {
      "bufferView": 2,
      "byteOffset": 1950792,
      "componentType": 5126,
      "count": 2321,
      "max": [
        -12.821271896362305,
        5.622509956359863,
        9.924040794372559
      ],
      "min": [
        -14.403640747070313,
        4.9427170753479,
        8.341669082641602
      ],
      "type": "VEC3"
    },
    {
      "bufferView": 2,
      "byteOffset": 1978644,
      "componentType": 5126,
      "count": 2321,
      "max": [
        1.0,
        1.0,
        1.0
      ],
      "min": [
        -1.0,
        -1.799999881768599e-05,
        -1.0
      ],
      "type": "VEC3"
    },
    {
      "bufferView": 3,
      "byteOffset": 1300528,
      "componentType": 5126,
      "count": 2321,
      "max": [
        0.9999985694885254,
        1.0,
        0.2785830497741699,
        1.0
      ],
      "min": [
        -0.925784707069397,
        -1.0,
        -0.2799435257911682,
        1.0
      ],
      "type": "VEC4"
    },
    {
      "bufferView": 1,
      "byteOffset": 650264,
      "componentType": 5126,
      "count": 2321,
      "max": [
        0.9836440086364746,
        0.06399600207805634
      ],
      "min": [
        0.2975560128688812,
        0.013578999787569046
      ],
      "type": "VEC2"
    },
    {
      "bufferView": 0,
      "byteOffset": 1676064,
      "componentType": 5125,
      "count": 12960,
      "type": "SCALAR"
    },
    {
      "bufferView": 2,
      "byteOffset": 2006496,
      "componentType": 5126,
      "count": 2321,
      "max": [
        0.2799060046672821,
        5.622509956359863,
        9.924040794372559
      ],
      "min": [
        -1.302467942237854,
        4.9427170753479,
        8.341669082641602
      ],
      "type": "VEC3"
    },
    {
      "bufferView": 2,
      "byteOffset": 2034348,
      "componentType": 5126,
      "count": 2321,
      "max": [
        1.0,
        1.0,
        1.0
      ],
      "min": [
        -1.0,
        -6.000002940709237e-06,
        -1.0
      ],
      "type": "VEC3"
    },
    {
      "bufferView": 3,
      "byteOffset": 1337664,
      "componentType": 5126,
      "count": 2321,
      "max": [
        0.9999985694885254,
        1.0,
        0.27957966923713684,
        1.0
      ],
      "min": [
        -0.9255420565605164,
        -1.0,
        -0.2787330746650696,
        1.0
      ],
      "type": "VEC4"
    },
    {
      "bufferView": 1,
      "byteOffset": 668832,
      "componentType": 5126,
      "count": 2321,
      "max": [
        0.4263319969177246,
        0.10097700357437134
      ],
      "min": [
        0.0679590031504631,
        0.013578999787569046
      ],
      "type": "VEC2"
    },
    {
      "bufferView": 0,
      "byteOffset": 1727904,
      "componentType": 5125,
      "count": 12960,
      "type": "SCALAR"
    },
    {
      "bufferView": 2,
      "byteOffset": 2062200,
      "componentType": 5126,
      "count": 29895,
      "max": [
        -2.615492105484009,
        1.8123830556869507,
        10.413729667663574
      ],
      "min": [
        -11.502015113830566,
        0.0022819999139755964,
        9.669404029846191
      ],
      "type": "VEC3"
    },
    {
      "bufferView": 2,
      "byteOffset": 2420940,
      "componentType": 5126,
      "count": 29895,
      "max": [
        1.0,
        1.0,
        1.0
      ],
      "min": [
        -1.0,
        -1.0,
        -0.9957340955734253
      ],
      "type": "VEC3"
    },
    {
      "bufferView": 3,
      "byteOffset": 1374800,
      "componentType": 5126,
      "count": 29895,
      "max": [
        0.9912856817245483,
        1.0,
        1.0,
        1.0
      ],
      "min": [
        -0.9922005534172058,
        -0.9993158578872681,
        -1.0,
        -1.0
      ],
      "type": "VEC4"
    },
    {
      "bufferView": 1,
      "byteOffset": 687400,
      "componentType": 5126,
      "count": 29895,
      "max": [
        0.9818699955940247,
        0.6668040156364441
      ],
      "min": [
        0.03137499839067459,
        0.004918999969959259
      ],
      "type": "VEC2"
    },
    {
      "bufferView": 0,
      "byteOffset": 1779744,
      "componentType": 5125,
      "count": 160512,
      "type": "SCALAR"
    },
    {
      "bufferView": 2,
      "byteOffset": 2779680,
      "componentType": 5126,
      "count": 7030,
      "max": [
        -1.166293978691101,
        6.143796920776367,
        -5.418344020843506
      ],
      "min": [
        -12.951208114624023,
        5.268826007843018,
        -9.249484062194824
      ],
      "type": "VEC3"
    },
    {
      "bufferView": 2,
      "byteOffset": 2864040,
      "componentType": 5126,
      "count": 7030,
      "max": [
        0.9988086223602295,
        0.9998976588249207,
        1.0
      ],
      "min": [
        -0.998808741569519,
        -0.06440499424934387,
        -1.0
      ],
      "type": "VEC3"
    },
    {
      "bufferView": 3,
      "byteOffset": 1853120,
      "componentType": 5126,
      "count": 7030,
      "max": [
        0.9884539842605591,
        1.0,
        0.305006206035614,
        1.0
      ],
      "min": [
        -0.9884448647499084,
        -1.0,
        -1.0,
        1.0
      ],
      "type": "VEC4"
    },
    {
      "bufferView": 1,
      "byteOffset": 926560,
      "componentType": 5126,
      "count": 7030,
      "max": [
        0.8643620014190674,
        0.823065996170044
      ],
      "min": [
        0.21681800484657288,
        0.015364999882876873
      ],
      "type": "VEC2"
    },
    {
      "bufferView": 0,
      "byteOffset": 2421792,
      "componentType": 5125,
      "count": 38400,
      "type": "SCALAR"
    }
  ],
  "asset": {
    "extras": {
      "author": "evansharp (https://sketchfab.com/evansharp)",
      "license": "CC-BY-4.0 (http://creativecommons.org/licenses/by/4.0/)",
      "source": "https://sketchfab.com/3d-models/sega-saturn-12050d94b9264056968994a207e127fc",
      "title": "Sega Saturn"
    },
    "generator": "Sketchfab-16.63.0",
    "version": "2.0"
  },
  "bufferViews": [
    {
      "buffer": 0,
      "byteLength": 2575392,
      "name": "floatBufferViews",
      "target": 34963
    },
    {
      "buffer": 0,
      "byteLength": 982800,
      "byteOffset": 2575392,
      "byteStride": 8,
      "name": "floatBufferViews",
      "target": 34962
    },
    {
      "buffer": 0,
      "byteLength": 2948400,
      "byteOffset": 3558192,
      "byteStride": 12,
      "name": "floatBufferViews",
      "target": 34962
    },
    {
      "buffer": 0,
      "byteLength": 1965600,
      "byteOffset": 6506592,
      "byteStride": 16,
      "name": "floatBufferViews",
      "target": 34962
    }
  ],
  "buffers": [
    {
      "byteLength": 8472192,
      "uri": "scene.bin"
    }
  ],
  "images": [
    {
      "uri": "textures/Saturn_Outside_baseColor.jpeg"
    },
    {
      "uri": "textures/Saturn_Outside_metallicRoughness.png"
    },
    {
      "uri": "textures/Saturn_Outside_normal.png"
    },
    {
      "uri": "textures/Saturn_Buttons_baseColor.jpeg"
    },
    {
      "uri": "textures/Saturn_Buttons_metallicRoughness.png"
    },
    {
      "uri": "textures/Saturn_Buttons_normal.png"
    }
  ],
  "materials": [
    {
      "doubleSided": true,
      "name": "Saturn_Outside",
      "normalTexture": {
        "index": 2
      },
      "occlusionTexture": {
        "index": 1
      },
      "pbrMetallicRoughness": {
        "baseColorTexture": {
          "index": 0
        },
        "metallicRoughnessTexture": {
          "index": 1
        }
      }
    },
    {
      "doubleSided": true,
      "name": "Saturn_Buttons",
      "normalTexture": {
        "index": 5
      },
      "occlusionTexture": {
        "index": 4
      },
      "pbrMetallicRoughness": {
        "baseColorTexture": {
          "index": 3
        },
        "metallicRoughnessTexture": {
          "index": 4
        }
      }
    }
  ],
  "meshes": [
    {
      "name": "defaultMaterial",
      "primitives": [
        {
          "attributes": {
            "NORMAL": 1,
            "POSITION": 0,
            "TANGENT": 2,
            "TEXCOORD_0": 3
          },
          "indices": 4,
          "material": 0,
          "mode": 4
        }
      ]
    },
    {
      "name": "defaultMaterial",
      "primitives": [
        {
          "attributes": {
            "NORMAL": 6,
            "POSITION": 5,
            "TANGENT": 7,
            "TEXCOORD_0": 8
          },
          "indices": 9,
          "material": 0,
          "mode": 4
        }
      ]
    },
    {
      "name": "defaultMaterial",
      "primitives": [
        {
          "attributes": {
            "NORMAL": 11,
            "POSITION": 10,
            "TANGENT": 12,
            "TEXCOORD_0": 13
          },
          "indices": 14,
          "material": 1,
          "mode": 4
        }
      ]
    },
    {
      "name": "defaultMaterial",
      "primitives": [
        {
          "attributes": {
            "NORMAL": 16,
            "POSITION": 15,
            "TANGENT": 17,
            "TEXCOORD_0": 18
          },
          "indices": 19,
          "material": 1,
          "mode": 4
        }
      ]
    },
    {
      "name": "defaultMaterial",
      "primitives": [
        {
          "attributes": {
            "NORMAL": 21,
            "POSITION": 20,
            "TANGENT": 22,
            "TEXCOORD_0": 23
          },
          "indices": 24,
          "material": 1,
          "mode": 4
        }
      ]
    },
    {
      "name": "defaultMaterial",
      "primitives": [
        {
          "attributes": {
            "NORMAL": 26,
            "POSITION": 25,
            "TANGENT": 27,
            "TEXCOORD_0": 28
          },
          "indices": 29,
          "material": 0,
          "mode": 4
        }
      ]
    }
  ],
  "nodes": [
    {
      "children": [
        1
      ],
      "matrix": [
        1.0,
        0.0,
        0.0,
        0.0,
        0.0,
        2.220446049250313e-16,
        -1.0,
        0.0,
        0.0,
        1.0,
        2.220446049250313e-16,
        0.0,
        0.0,
        0.0,
        0.0,
        1.0
      ],
      "name": "Sketchfab_model"
    },
    {
      "children": [
        2
      ],
      "matrix": [
        1.0,
        0.0,
        0.0,
        0.0,
        0.0,
        -4.371139006309477e-08,
        0.999999999999999,
        0.0,
        0.0,
        -0.999999999999999,
        -4.371139006309477e-08,
        0.0,
        0.0,
        0.0,
        0.0,
        1.0
      ],
      "name": "Collada visual scene group"
    },
    {
      "children": [
        3,
        6,
        8,
        10,
        12
      ],
      "name": "Saturn"
    },
    {
      "children": [
        4,
        5
      ],
      "name": "pCube12"
    },
    {
      "mesh": 0,
      "name": "defaultMaterial"
    },
    {
      "mesh": 1,
      "name": "defaultMaterial"
    },
    {
      "children": [
        7
      ],
      "name": "pCylinder9"
    },
    {
      "mesh": 2,
      "name": "defaultMaterial"
    },
    {
      "children": [
        9
      ],
      "name": "pCylinder8"
    },
    {
      "mesh": 3,
      "name": "defaultMaterial"
    },
    {
      "children": [
        11
      ],
      "name": "pCube11"
    },
    {
      "mesh": 4,
      "name": "defaultMaterial"
    },
    {
      "children": [
        13
      ],
      "name": "polySurface14"
    },
    {
      "mesh": 5,
      "name": "defaultMaterial"
    }
  ],
  "samplers": [
    {
      "magFilter": 9729,
      "minFilter": 9987,
      "wrapS": 10497,
      "wrapT": 10497
    }
  ],
  "scene": 0,
  "scenes": [
    {
      "name": "Sketchfab_Scene",
      "nodes": [
        0
      ]
    }
  ],
  "textures": [
    {
      "sampler": 0,
      "source": 0
    },
    {
      "sampler": 0,
      "source": 1
    },
    {
      "sampler": 0,
      "source": 2
    },
    {
      "sampler": 0,
      "source": 3
    },
    {
      "sampler": 0,
      "source": 4
    },
    {
      "sampler": 0,
      "source": 5
    }
  ]
}
